<svg xmlns="http://www.w3.org/2000/svg" width="17" height="16" viewBox="0 0 17 16">
    <g fill="#94A3DB" fill-rule="nonzero">
        <path d="M16.53 0H0v4.47h.69v11h15.13v-11h.71V0zm-1.4 14.81H1.38V4.47h13.75v10.34zm.69-11H.69V.69h15.13v3.12z"/>
        <path d="M5.77 8.94h5a1.27 1.27 0 0 0 1.29-1.25v-.25a1.27 1.27 0 0 0-1.29-1.25h-5a1.27 1.27 0 0 0-1.24 1.25v.25a1.27 1.27 0 0 0 1.24 1.25zm-.6-1.5a.58.58 0 0 1 .6-.56h5a.58.58 0 0 1 .6.56v.25a.59.59 0 0 1-.6.57h-5a.59.59 0 0 1-.6-.57v-.25z"/>
    </g>
</svg>
