<svg xmlns="http://www.w3.org/2000/svg" width="20" height="17" viewBox="0 0 20 17">
    <g fill="#94A3DB" fill-rule="nonzero">
        <path d="M17.5 1.99H7.18v-.4A1.6 1.6 0 0 0 5.59 0h-4A1.59 1.59 0 0 0 0 1.59v13.12c0 .878.712 1.59 1.59 1.59H17.5a1.59 1.59 0 0 0 1.59-1.59V3.58a1.59 1.59 0 0 0-1.59-1.59zM.8 1.59A.8.8 0 0 1 1.6.8h4a.8.8 0 0 1 .79.79v1.2H17.5a.79.79 0 0 1 .8.79v.8H.8V1.59zm16.7 13.92H1.6a.8.8 0 0 1-.8-.8V5.17h17.5v9.54a.8.8 0 0 1-.8.8z"/>
        <path d="M9.96 10.23V7.06h-.8v3.17H5.99v.79h3.17v3.17h.8v-3.17h3.17v-.79z"/>
    </g>
</svg>
