<svg xmlns="http://www.w3.org/2000/svg" width="17" height="18" viewBox="0 0 17 18">
    <path fill="#94A3DB" fill-rule="nonzero" d="M16.96 2.782L14.51.332l-.6.6-.85-.84a.31.31 0 0 0-.44 0l-5 5a.3.3 0 0 0 0 .43.31.31 0 0 0 .44 0l4.8-4.8.62.62-10.54 10.57.71.71a2.12 2.12 0 0 0-2.47.4l-.13.14-.05.07-.07.09v.06a9 9 0 0 0-.93 3.91h.25c.74 0 2.89-.1 4-1.22a2.17 2.17 0 0 0 .41-2.48l.75.76 11.55-11.57zM3.79 15.632a4.64 4.64 0 0 1-2.75 1l1.4-1.39-.38-.44-1.34 1.34a6.18 6.18 0 0 1 .68-2.42.23.23 0 0 1 0-.07v-.05l.08-.09a1.55 1.55 0 0 1 2.18 0 1.55 1.55 0 0 1 .13 2.12zm12.27-12.85l-3.61 3.64-1.58-1.58 3.64-3.64 1.55 1.58zm-5.65 2.49l1.65 1.58-6.64 6.64-1.57-1.58 6.56-6.64z"/>
</svg>
